<svg width="32" height="32" viewBox="0 0 32 32" fill="none" xmlns="http://www.w3.org/2000/svg">
  <rect width="32" height="32" rx="8" fill="#0EA5E9"/>
  <path d="M11.5 22C10.5 22 9.66667 21.6667 9 21C8.33333 20.3333 8 19.5 8 18.5C8 17.8333 8.16667 17.2083 8.5 16.625C8.83333 16.0417 9.33333 15.5833 10 15.25L13.75 13.5C14.0833 13.3333 14.25 13.0833 14.25 12.75C14.25 12.5833 14.1667 12.4583 14 12.375C13.8333 12.2917 13.6667 12.25 13.5 12.25C13 12.25 12.5417 12.4167 12.125 12.75C11.7083 13.0833 11.4167 13.5 11.25 14H8.75C8.91667 12.8333 9.45833 11.8333 10.375 11C11.2917 10.1667 12.3333 9.75 13.5 9.75C14.8333 9.75 15.9167 10.1667 16.75 11C17.5833 11.8333 18 12.8333 18 14C18 14.6667 17.8333 15.2917 17.5 15.875C17.1667 16.4583 16.6667 16.9167 16 17.25L12.25 19C11.9167 19.1667 11.75 19.4167 11.75 19.75C11.75 19.9167 11.8333 20.0417 12 20.125C12.1667 20.2083 12.3333 20.25 12.5 20.25C13 20.25 13.4583 20.0833 13.875 19.75C14.2917 19.4167 14.5833 19 14.75 18.5H17.25C17.0833 19.6667 16.5417 20.6667 15.625 21.5C14.7083 22.3333 13.6667 22.75 12.5 22.75C12.1667 22.75 11.8333 22.6667 11.5 22Z" fill="white"/>
  <path d="M19.5 22.75L23.5 10.25H24.5L20.5 22.75H19.5Z" fill="white"/>
</svg> 